<?xml version="1.0" encoding="UTF-8"?>
<svg id="_Слой_1" data-name=" Слой 1" xmlns="http://www.w3.org/2000/svg" xmlns:xlink="http://www.w3.org/1999/xlink" viewBox="0 0 64.4 63.07">
  <defs>
    <style>
      .cls-1, .cls-2, .cls-3 {
        isolation: isolate;
      }

      .cls-4 {
        fill: none;
        stroke-width: 0px;
      }

      .cls-2 {
        font-family: Century, Century;
        font-size: 9.43px;
      }

      .cls-2, .cls-3 {
        fill: #fff;
      }

      .cls-5 {
        clip-path: url(#clippath);
      }

      .cls-3 {
        font-family: Calibri, Calibri;
        font-size: 2px;
      }
    </style>
    <clipPath id="clippath">
      <path class="cls-4" d="m47.91,45.78h0c0,1.32-.57,2.57-1.7,3.73-1.11,1.16-2.49,1.74-4.12,1.74h0c-1.16,0-1.96-.15-2.4-.46-.42-.31-.86-.93-1.33-1.86h0c-1.47-3.41-2.2-7.71-2.2-12.91h0c0-2.79.04-4.65.12-5.57h0c.53-5.34,1.74-11.82,3.61-19.42h0c.39-1.55.58-2.4.58-2.54h-11.41l-.12.46c0,.08-.07.41-.22.99-.16.58-.38,1.43-.65,2.54-.26,1.13-.51,2.16-.75,3.08h0c-5.12,19.92-8.18,30.77-9.18,32.55h0c-.94,2.18-2.6,3.27-4.99,3.27h0c-1.79,0-3.04-.66-3.73-1.99h0c-.16-.39-.24-1.01-.24-1.86h0v-1.26l1.53-3.27c5.81-12.24,10.03-22.81,12.67-31.72h0l.92-2.78h-3.71c-3.1,0-5.26.11-6.47.34-1.19.23-2.65.96-4.36,2.2h0c-1.86,1.16-3.48,2.75-4.87,4.77h0c-.39.61-.7.98-.94,1.11-.23.11-.81.17-1.74.17h0c-1.23,0-1.96-.27-2.2-.82H.01c-.08-.39.31-1.28,1.16-2.66h0C6.51,5.47,11.74,1.02,16.86.24h0c.55-.16,9.27-.24,26.15-.24h0c12.4,0,18.75.04,19.06.12h0c1.55.55,2.32,1.63,2.32,3.25h0c0,2.41-1.24,4.04-3.71,4.89h0c-.47.16-3.14.24-8.02.24h-7.46l-.34,1.96c-.94,5.59-1.4,10.2-1.4,13.83h0c0,6.91,1.2,13.15,3.61,18.72h0c.55,1.4.82,2.33.82,2.78h.02Z"/>
    </clipPath>
  </defs>
  <g id="_Слой_2" data-name=" Слой 2">
    <g class="cls-5">
      <g id="_3_1415926535_8979323846_2643383279_5028841971_693993_7510_5820974944_592307" data-name=" 3 1415926535 8979323846 2643383279 5028841971 693993 7510 5820974944 592307" class="cls-1">
        <text class="cls-3" transform="translate(0 1.68)"><tspan x="0" y="0" xml:space="preserve">                                </tspan></text>
        <text class="cls-3" transform="translate(14.47 1.68)"><tspan x="0" y="0">3</tspan></text>
        <text class="cls-3" transform="translate(15.49 1.68)"><tspan x="0" y="0">,</tspan></text>
        <text class="cls-3" transform="translate(15.99 1.68)"><tspan x="0" y="0">1</tspan></text>
        <text class="cls-3" transform="translate(16.99 1.68)"><tspan x="0" y="0">4</tspan></text>
        <text class="cls-3" transform="translate(18.01 1.68)"><tspan x="0" y="0">1</tspan></text>
        <text class="cls-3" transform="translate(19.01 1.68)"><tspan x="0" y="0">5</tspan></text>
        <text class="cls-3" transform="translate(20.04 1.68)"><tspan x="0" y="0">9</tspan></text>
        <text class="cls-3" transform="translate(21.04 1.68)"><tspan x="0" y="0">2</tspan></text>
        <text class="cls-3" transform="translate(22.06 1.68)"><tspan x="0" y="0">6</tspan></text>
        <text class="cls-3" transform="translate(23.06 1.68)"><tspan x="0" y="0">5</tspan></text>
        <text class="cls-3" transform="translate(24.08 1.68)"><tspan x="0" y="0">3</tspan></text>
        <text class="cls-3" transform="translate(25.08 1.68)"><tspan x="0" y="0">5</tspan></text>
        <text class="cls-3" transform="translate(26.11 1.68)"><tspan x="0" y="0"> </tspan></text>
        <text class="cls-3" transform="translate(26.54 1.68)"><tspan x="0" y="0">8</tspan></text>
        <text class="cls-3" transform="translate(27.56 1.68)"><tspan x="0" y="0">9</tspan></text>
        <text class="cls-3" transform="translate(28.57 1.68)"><tspan x="0" y="0">7</tspan></text>
        <text class="cls-3" transform="translate(29.59 1.68)"><tspan x="0" y="0">93</tspan></text>
        <text class="cls-3" transform="translate(31.59 1.68)"><tspan x="0" y="0">2</tspan></text>
        <text class="cls-3" transform="translate(32.61 1.68)"><tspan x="0" y="0">3</tspan></text>
        <text class="cls-3" transform="translate(33.61 1.68)"><tspan x="0" y="0">8</tspan></text>
        <text class="cls-3" transform="translate(34.64 1.68)"><tspan x="0" y="0">46</tspan></text>
        <text class="cls-3" transform="translate(36.64 1.68)"><tspan x="0" y="0"> </tspan></text>
        <text class="cls-3" transform="translate(37.1 1.68)"><tspan x="0" y="0">2</tspan></text>
        <text class="cls-3" transform="translate(38.12 1.68)"><tspan x="0" y="0">6</tspan></text>
        <text class="cls-3" transform="translate(39.13 1.68)"><tspan x="0" y="0">4</tspan></text>
        <text class="cls-3" transform="translate(40.15 1.68)"><tspan x="0" y="0">3</tspan></text>
        <text class="cls-3" transform="translate(41.16 1.68)"><tspan x="0" y="0">3</tspan></text>
        <text class="cls-3" transform="translate(42.18 1.68)"><tspan x="0" y="0">83</tspan></text>
        <text class="cls-3" transform="translate(44.19 1.68)"><tspan x="0" y="0">2</tspan></text>
        <text class="cls-3" transform="translate(45.22 1.68)"><tspan x="0" y="0">7</tspan></text>
        <text class="cls-3" transform="translate(46.23 1.68)"><tspan x="0" y="0">9 </tspan></text>
        <text class="cls-3" transform="translate(47.72 1.68)"><tspan x="0" y="0">50</tspan></text>
        <text class="cls-3" transform="translate(49.73 1.68)"><tspan x="0" y="0">2</tspan></text>
        <text class="cls-3" transform="translate(50.75 1.68)"><tspan x="0" y="0">8</tspan></text>
        <text class="cls-3" transform="translate(51.76 1.68)"><tspan x="0" y="0">8</tspan></text>
        <text class="cls-3" transform="translate(52.78 1.68)"><tspan x="0" y="0">4</tspan></text>
        <text class="cls-3" transform="translate(53.79 1.68)"><tspan x="0" y="0">1</tspan></text>
        <text class="cls-3" transform="translate(54.82 1.68)"><tspan x="0" y="0">9</tspan></text>
        <text class="cls-3" transform="translate(55.82 1.68)"><tspan x="0" y="0">7</tspan></text>
        <text class="cls-3" transform="translate(56.85 1.68)"><tspan x="0" y="0">1 </tspan></text>
        <text class="cls-3" transform="translate(58.3 1.68)"><tspan x="0" y="0">6</tspan></text>
        <text class="cls-3" transform="translate(59.32 1.68)"><tspan x="0" y="0">9</tspan></text>
        <text class="cls-3" transform="translate(60.33 1.68)"><tspan x="0" y="0">3</tspan></text>
        <text class="cls-3" transform="translate(61.35 1.68)"><tspan x="0" y="0">9</tspan></text>
        <text class="cls-3" transform="translate(62.36 1.68)"><tspan x="0" y="0">9</tspan></text>
        <text class="cls-3" transform="translate(63.39 1.68)"><tspan x="0" y="0">3</tspan></text>
        <text class="cls-3" transform="translate(0 4.08)"><tspan x="0" y="0" xml:space="preserve">                        </tspan></text>
        <text class="cls-3" transform="translate(10.85 4.08)"><tspan x="0" y="0">7</tspan></text>
        <text class="cls-3" transform="translate(11.87 4.08)"><tspan x="0" y="0">5</tspan></text>
        <text class="cls-3" transform="translate(12.88 4.08)"><tspan x="0" y="0">1</tspan></text>
        <text class="cls-3" transform="translate(13.9 4.08)"><tspan x="0" y="0">0</tspan></text>
        <text class="cls-3" transform="translate(14.9 4.08)"><tspan x="0" y="0"> </tspan></text>
        <text class="cls-3" transform="translate(15.35 4.08)"><tspan x="0" y="0">5</tspan></text>
        <text class="cls-3" transform="translate(16.36 4.08)"><tspan x="0" y="0">8</tspan></text>
        <text class="cls-3" transform="translate(17.39 4.08)"><tspan x="0" y="0">2</tspan></text>
        <text class="cls-3" transform="translate(18.39 4.08)"><tspan x="0" y="0">0</tspan></text>
        <text class="cls-3" transform="translate(19.42 4.08)"><tspan x="0" y="0">9</tspan></text>
        <text class="cls-3" transform="translate(20.42 4.08)"><tspan x="0" y="0">7</tspan></text>
        <text class="cls-3" transform="translate(21.45 4.08)"><tspan x="0" y="0">4</tspan></text>
        <text class="cls-3" transform="translate(22.45 4.08)"><tspan x="0" y="0">9</tspan></text>
        <text class="cls-3" transform="translate(23.48 4.08)"><tspan x="0" y="0">4</tspan></text>
        <text class="cls-3" transform="translate(24.49 4.08)"><tspan x="0" y="0">4</tspan></text>
        <text class="cls-3" transform="translate(25.51 4.08)"><tspan x="0" y="0" xml:space="preserve"> 5</tspan></text>
        <text class="cls-3" transform="translate(26.95 4.08)"><tspan x="0" y="0">9</tspan></text>
        <text class="cls-3" transform="translate(27.98 4.08)"><tspan x="0" y="0">2</tspan></text>
        <text class="cls-3" transform="translate(28.98 4.08)"><tspan x="0" y="0">3</tspan></text>
        <text class="cls-3" transform="translate(30.01 4.08)"><tspan x="0" y="0">0</tspan></text>
        <text class="cls-3" transform="translate(31.02 4.08)"><tspan x="0" y="0">7</tspan></text>
        <text class="cls-3" transform="translate(32.04 4.08)"><tspan x="0" y="0">8</tspan></text>
        <text class="cls-3" transform="translate(33.05 4.08)"><tspan x="0" y="0">1</tspan></text>
        <text class="cls-3" transform="translate(34.07 4.08)"><tspan x="0" y="0">6</tspan></text>
        <text class="cls-3" transform="translate(35.08 4.08)"><tspan x="0" y="0">4</tspan></text>
        <text class="cls-3" transform="translate(36.1 4.08)"><tspan x="0" y="0" xml:space="preserve"> 0628620899 8628034825 342117</tspan></text>
        <text class="cls-3" transform="translate(0 6.48)"><tspan x="0" y="0" xml:space="preserve">                  0679 8214808651 3282306647 0938446095 5058223172 53594081</tspan></text>
        <text class="cls-3" transform="translate(0 8.88)"><tspan x="0" y="0" xml:space="preserve">            28 4811174502 8410270193 8521105559 6446229489 5493038196 </tspan></text>
        <text class="cls-3" transform="translate(0 11.28)"><tspan x="0" y="0" xml:space="preserve">       442881                                 0975                           6659</tspan></text>
        <text class="cls-3" transform="translate(0 13.68)"><tspan x="0" y="0" xml:space="preserve">   334461                                   2847                           564823 </tspan></text>
        <text class="cls-3" transform="translate(0 16.08)"><tspan x="0" y="0" xml:space="preserve"> 37867                                     83165                         27120</tspan></text>
        <text class="cls-3" transform="translate(0 18.48)"><tspan x="0" y="0" xml:space="preserve">                                               19091                           45648</tspan></text>
        <text class="cls-3" transform="translate(0 20.88)"><tspan x="0" y="0" xml:space="preserve">                                             56692                           346034</tspan></text>
        <text class="cls-3" transform="translate(0 23.28)"><tspan x="0" y="0" xml:space="preserve">                                           8610 4                            543266</tspan></text>
        <text class="cls-3" transform="translate(0 25.68)"><tspan x="0" y="0" xml:space="preserve">                                        482 133                            936072</tspan></text>
        <text class="cls-3" transform="translate(0 28.08)"><tspan x="0" y="0" xml:space="preserve">                                       6 02491                            41273 7</tspan></text>
        <text class="cls-3" transform="translate(0 30.48)"><tspan x="0" y="0" xml:space="preserve">                                    2458700                            66 06315</tspan></text>
        <text class="cls-3" transform="translate(0 32.88)"><tspan x="0" y="0" xml:space="preserve">                                  58817 48                             81520920</tspan></text>
        <text class="cls-3" transform="translate(0 35.28)"><tspan x="0" y="0" xml:space="preserve">                                96282925                             40 917153</tspan></text>
        <text class="cls-3" transform="translate(0 37.68)"><tspan x="0" y="0" xml:space="preserve">                             6436  789                                 2590360 0</tspan></text>
        <text class="cls-3" transform="translate(0 40.08)"><tspan x="0" y="0" xml:space="preserve">                           113305305                                4882046652 </tspan></text>
        <text class="cls-3" transform="translate(0 42.48)"><tspan x="0" y="0" xml:space="preserve">                         138414695                                   1941511609</tspan></text>
        <text class="cls-3" transform="translate(0 44.88)"><tspan x="0" y="0" xml:space="preserve">                       4 33057270                                     36 57595919</tspan></text>
        <text class="cls-3" transform="translate(0 47.28)"><tspan x="0" y="0" xml:space="preserve">                    53 0921861                                         173 8193261</tspan></text>
        <text class="cls-3" transform="translate(0 49.68)"><tspan x="0" y="0" xml:space="preserve">                     179 31051                                             18548 074</tspan></text>
        <text class="cls-3" transform="translate(0 52.08)"><tspan x="0" y="0" xml:space="preserve">                       4623799 6274956735 1885752724 8912279381    </tspan></text>
      </g>
    </g>
  </g>
  <g class="cls-1">
    <text class="cls-2" transform="translate(1.45 60.18)"><tspan x="0" y="0">ПринтИнвест</tspan></text>
  </g>
</svg>